<svg xmlns="http://www.w3.org/2000/svg" version="1.1" xmlns:xlink="http://www.w3.org/1999/xlink" xmlns:svgjs="http://svgjs.dev/svgjs" width="1440" height="560" preserveAspectRatio="none" viewBox="0 0 1440 560"><g mask="url(&quot;#SvgjsMask1006&quot;)" fill="none"><rect width="1440" height="560" x="0" y="0" fill="rgba(62, 123, 39, 0.5)"></rect><path d="M801.51 577.98C904.58 541.73 862.44 238.13 1073.91 236.25 1285.38 234.37 1479.07 358.69 1618.71 359.45" stroke="rgba(247, 247, 247, 0.54)" stroke-width="2"></path><path d="M90.04 670.59C284.12 662.55 419.59 348.63 793.58 340.89 1167.58 333.15 1315.63 163.09 1497.13 161.69" stroke="rgba(247, 247, 247, 0.54)" stroke-width="2"></path><path d="M380.62 627.04C544.14 619.68 644.1 355.86 970.01 341.9 1295.93 327.94 1397.01 74.12 1559.41 67.5" stroke="rgba(247, 247, 247, 0.54)" stroke-width="2"></path><path d="M315.03 577.21C467.98 573.76 583.04 369.82 888.36 363.23 1193.68 356.64 1309.32 159.18 1461.69 156.03" stroke="rgba(247, 247, 247, 0.54)" stroke-width="2"></path><path d="M489.53 663.47C657.44 655.41 788.95 364.86 1091.91 364.67 1394.88 364.48 1537.96 531.11 1694.3 532.67" stroke="rgba(247, 247, 247, 0.54)" stroke-width="2"></path></g><defs><mask id="SvgjsMask1006"><rect width="1440" height="560" fill="#ffffff"></rect></mask></defs></svg>