<?xml version="1.0" standalone="no"?>
<svg xmlns:xlink="http://www.w3.org/1999/xlink" id="wave" style="transform:rotate(0deg); transition: 0.3s" viewBox="0 0 1440 490" version="1.1" xmlns="http://www.w3.org/2000/svg"><defs><linearGradient id="sw-gradient-0" x1="0" x2="0" y1="1" y2="0"><stop stop-color="rgba(62, 123, 39, 1)" offset="0%"/><stop stop-color="rgba(165.436, 209.784, 148.715, 1)" offset="100%"/></linearGradient></defs><path style="transform:translate(0, 0px); opacity:1" fill="url(#sw-gradient-0)" d="M0,245L60,228.7C120,212,240,180,360,212.3C480,245,600,343,720,334.8C840,327,960,212,1080,138.8C1200,65,1320,33,1440,73.5C1560,114,1680,229,1800,277.7C1920,327,2040,310,2160,261.3C2280,212,2400,131,2520,98C2640,65,2760,82,2880,114.3C3000,147,3120,196,3240,187.8C3360,180,3480,114,3600,122.5C3720,131,3840,212,3960,212.3C4080,212,4200,131,4320,114.3C4440,98,4560,147,4680,204.2C4800,261,4920,327,5040,334.8C5160,343,5280,294,5400,294C5520,294,5640,343,5760,334.8C5880,327,6000,261,6120,245C6240,229,6360,261,6480,285.8C6600,310,6720,327,6840,318.5C6960,310,7080,278,7200,253.2C7320,229,7440,212,7560,179.7C7680,147,7800,98,7920,81.7C8040,65,8160,82,8280,106.2C8400,131,8520,163,8580,179.7L8640,196L8640,490L8580,490C8520,490,8400,490,8280,490C8160,490,8040,490,7920,490C7800,490,7680,490,7560,490C7440,490,7320,490,7200,490C7080,490,6960,490,6840,490C6720,490,6600,490,6480,490C6360,490,6240,490,6120,490C6000,490,5880,490,5760,490C5640,490,5520,490,5400,490C5280,490,5160,490,5040,490C4920,490,4800,490,4680,490C4560,490,4440,490,4320,490C4200,490,4080,490,3960,490C3840,490,3720,490,3600,490C3480,490,3360,490,3240,490C3120,490,3000,490,2880,490C2760,490,2640,490,2520,490C2400,490,2280,490,2160,490C2040,490,1920,490,1800,490C1680,490,1560,490,1440,490C1320,490,1200,490,1080,490C960,490,840,490,720,490C600,490,480,490,360,490C240,490,120,490,60,490L0,490Z"/></svg>